<svg xmlns="http://www.w3.org/2000/svg" xmlns:xlink="http://www.w3.org/1999/xlink" version="1.1" width="1000" height="1000" viewBox="0 0 1000 1000" xml:space="preserve">
<desc>Created with Fabric.js 3.5.0</desc>
<defs>
</defs>
<rect x="0" y="0" width="100%" height="100%" fill="#ffffff"/>
<g transform="matrix(1.1364 0 0 1.1364 500.0145 500.0145)" id="302283">
<g style="" vector-effect="non-scaling-stroke">
		<g transform="matrix(3.8471 0 0 3.8471 -0.0019 -0.0016)" id="_x3C_Compound_Path_x3E__1_">
<path style="stroke: none; stroke-width: 1; stroke-dasharray: none; stroke-linecap: butt; stroke-dashoffset: 0; stroke-linejoin: miter; stroke-miterlimit: 4; is-custom-font: none; font-file-url: none; fill: rgb(255,255,255); fill-rule: nonzero; opacity: 1;" transform=" translate(-103.9739, -103.974)" d="M 104.591 207.474 c -14.963 0 -27.911 -13.643 -32.006 -33.409 H 4.286 c -1.714 0 -3.271 -1.024 -3.94 -2.605 c -0.676 -1.578 -0.344 -3.403 0.845 -4.653 c 4.406 -4.606 8.6 -8.181 12.304 -11.338 c 9.101 -7.759 14.598 -12.444 14.598 -24.54 V 90.918 c 0.179 -34.429 23.098 -65.056 54.91 -73.978 c 1.542 -6.993 7.136 -16.466 20.965 -16.466 c 13.686 0 19.347 9.777 20.936 16.924 c 31.988 8.954 55.018 39.392 55.182 73.506 v 41.343 c 0 11.724 4.864 15.697 13.675 22.894 c 3.887 3.171 8.285 6.764 12.995 11.671 c 1.185 1.242 1.525 3.071 0.845 4.653 c -0.673 1.578 -2.226 2.605 -3.94 2.605 h -67.071 C 132.495 193.832 119.554 207.474 104.591 207.474 z M 81.776 175.608 c 3.837 13.757 12.938 23.291 22.815 23.291 c 9.874 0 18.968 -9.534 22.808 -23.291 H 81.776 z M 15.001 165.487 h 177.826 c -1.553 -1.321 -3.056 -2.548 -4.481 -3.704 c -9.398 -7.677 -16.824 -13.739 -16.824 -29.536 V 90.918 c -0.15 -31.168 -21.767 -58.901 -51.407 -65.908 c -1.829 -0.433 -3.16 -2.008 -3.293 -3.883 c -0.086 -1.21 -1.288 -12.082 -12.848 -12.082 c -11.9 0 -12.794 10.368 -12.848 11.556 c -0.1 1.904 -1.446 3.511 -3.3 3.944 C 58.352 31.502 36.84 59.428 36.679 90.943 v 39.99 c 0 16.055 -8.167 23.008 -17.619 31.068 C 17.761 163.1 16.401 164.26 15.001 165.487 z" stroke-linecap="round"/>
</g>
		<g transform="matrix(3.8471 0 0 3.8471 2.8054 -320.5441)" id="Capa_1">
<path style="stroke: none; stroke-width: 1; stroke-dasharray: none; stroke-linecap: butt; stroke-dashoffset: 0; stroke-linejoin: miter; stroke-miterlimit: 4; is-custom-font: none; font-file-url: none; fill: rgb(255,255,255); fill-rule: nonzero; opacity: 1;" transform=" translate(-104.7033, -20.6534)" d="M 126.823 26.746 c -0.412 0 -0.834 -0.061 -1.249 -0.19 c -22.74 -6.921 -41.497 -1.117 -41.686 -1.056 c -2.269 0.716 -4.66 -0.53 -5.383 -2.777 c -0.723 -2.251 0.512 -4.66 2.759 -5.383 c 0.862 -0.279 21.376 -6.721 46.804 1.016 c 2.265 0.684 3.539 3.081 2.856 5.347 C 130.359 25.554 128.655 26.746 126.823 26.746 z" stroke-linecap="round"/>
</g>
</g>
</g>
</svg>