<?xml version="1.0" encoding="UTF-8" standalone="no"?>
<svg xmlns:xlink="http://www.w3.org/1999/xlink" height="20.15px" width="27.5px" xmlns="http://www.w3.org/2000/svg">
  <g transform="matrix(1.0, 0.0, 0.0, 1.0, 133.05, 121.8)">
    <use height="20.15" transform="matrix(1.0, 0.0, 0.0, 1.0, -133.05, -121.8)" width="27.5" xlink:href="#shape0"/>
  </g>
  <defs>
    <g id="shape0" transform="matrix(1.0, 0.0, 0.0, 1.0, 133.05, 121.8)">
      <path d="M-124.8 -111.75 L-124.55 -110.1 -117.55 -116.55 -119.3 -116.85 Q-121.6 -116.85 -123.2 -115.4 -124.8 -113.85 -124.8 -111.75 M-133.05 -111.65 Q-133.05 -114.85 -128.7 -117.9 -124.75 -120.6 -119.3 -120.55 L-114.15 -119.8 -112.35 -121.4 Q-111.95 -121.8 -111.35 -121.8 -110.7 -121.8 -110.3 -121.4 -109.9 -121.05 -109.9 -120.45 -109.9 -119.9 -110.3 -119.5 L-129.05 -102.0 Q-129.5 -101.65 -130.1 -101.65 -130.7 -101.65 -131.15 -102.0 -131.6 -102.4 -131.6 -103.0 L-131.15 -103.95 -129.1 -105.8 Q-133.1 -108.6 -133.05 -111.65 M-105.55 -111.85 Q-105.35 -108.85 -109.65 -105.8 -113.65 -103.0 -119.2 -102.95 L-124.25 -103.5 -120.75 -106.8 -119.3 -106.65 Q-117.05 -106.65 -115.5 -108.15 -113.85 -109.65 -113.85 -111.75 -113.85 -112.4 -114.0 -113.05 L-109.35 -117.4 Q-105.65 -114.65 -105.55 -111.85" fill="#732080" fill-rule="evenodd" stroke="none"/>
    </g>
  </defs>
</svg>
